<svg width="35" height="35" viewBox="0 0 35 35" fill="none" xmlns="http://www.w3.org/2000/svg">
<path d="M17.3342 0C7.77554 0 0 7.77555 0 17.3343C0 20.5945 0.90688 23.6481 2.47576 26.2539C2.47959 26.2616 2.48343 26.2692 2.49108 26.2807C5.52553 31.3088 11.0434 34.6762 17.3342 34.6762C23.6213 34.6762 29.143 31.305 32.1812 26.2807C32.1889 26.2731 32.1927 26.2654 32.1966 26.2539C33.7693 23.6481 34.6723 20.5945 34.6723 17.3343C34.6723 7.77555 26.893 0 17.3342 0ZM31.9402 25.856C31.856 26.0014 31.7718 26.1391 31.6838 26.2807C30.8879 27.5511 29.9274 28.7106 28.8368 29.7284C25.8177 32.5371 21.7692 34.2552 17.3304 34.2552C12.8916 34.2552 8.85079 32.5371 5.82782 29.7284C4.73726 28.7144 3.77679 27.5511 2.98087 26.2807C2.89286 26.1391 2.80486 26.0014 2.7245 25.856C1.91327 24.4746 1.29719 22.9669 0.903059 21.3751C0.86862 21.2335 0.838012 21.0919 0.811226 20.9503C0.554847 19.7871 0.420911 18.5779 0.420911 17.3381C0.420911 8.01661 8.00512 0.428571 17.3304 0.428571C26.6557 0.428571 34.2476 8.01661 34.2476 17.3381C34.2476 18.5779 34.1098 19.7871 33.8573 20.9503C33.8267 21.0919 33.796 21.2335 33.7578 21.3751C33.3675 22.9669 32.7476 24.4746 31.9402 25.856Z" fill="white"/>
<path d="M10.809 20.9473C10.8129 21.0927 10.832 21.2304 10.8511 21.372H0.515625V20.9473H10.809Z" fill="white"/>
<path d="M34.1441 20.9473V21.372H23.8086C23.8316 21.2304 23.8469 21.0927 23.8507 20.9473H34.1441Z" fill="white"/>
<path d="M13.5468 25.8574C13.7649 26.0143 13.9868 26.1559 14.2241 26.2822H2.47656V25.8574H13.5468Z" fill="white"/>
<path d="M32.1966 25.8574V26.2822H20.4453C20.6787 26.1559 20.9045 26.0143 21.1226 25.8574H32.1966Z" fill="white"/>
<path d="M17.3321 27.2805C16.2109 27.2805 15.1012 27.0012 14.1216 26.4693C13.869 26.3315 13.6395 26.19 13.4213 26.0293C11.8907 24.9425 10.8767 23.255 10.6433 21.403C10.6203 21.2575 10.605 21.1121 10.5974 20.9591C10.5859 20.8252 10.582 20.6797 10.582 20.5267C10.582 16.8838 16.8958 8.5075 17.1637 8.15163L17.3321 7.92969L17.5004 8.15163C17.7683 8.5075 24.0821 16.8838 24.0821 20.5267C24.0821 20.6759 24.0783 20.8252 24.063 20.9706C24.0591 21.1121 24.04 21.2614 24.017 21.4068C23.7836 23.255 22.7696 24.9425 21.2351 26.0293C21.017 26.1861 20.7874 26.3315 20.5387 26.4693C19.5629 26.9974 18.4532 27.2805 17.3321 27.2805ZM17.3321 8.63377C16.3065 10.019 11.0068 17.3468 11.0068 20.5229C11.0068 20.6606 11.0106 20.7945 11.0221 20.9285C11.0259 21.0777 11.045 21.2078 11.0642 21.3417C11.2861 23.0828 12.2351 24.6632 13.6701 25.681C13.8767 25.8303 14.091 25.9642 14.3244 26.0943C16.1611 27.0892 18.503 27.0892 20.3436 26.0943C20.577 25.968 20.7913 25.8303 20.9941 25.6849C22.4329 24.6632 23.3818 23.0828 23.5999 21.3456C23.6191 21.2078 23.6382 21.0777 23.642 20.9399C23.6535 20.7945 23.6574 20.6606 23.6574 20.5229C23.6612 17.3468 18.3576 10.019 17.3321 8.63377Z" fill="white"/>
<path d="M29.2196 29.5098H5.44531V29.9345H29.2196V29.5098Z" fill="white"/>
</svg>
