<svg width="35" height="35" viewBox="0 0 35 35" fill="none" xmlns="http://www.w3.org/2000/svg">
<path d="M25.1399 10.6069L25.1055 10.3926L24.8912 10.4462C24.6693 10.5036 21.2254 11.4449 18.6884 13.5304C18.5812 13.6184 18.4779 13.7064 18.3784 13.7982C17.1348 14.9079 16.1705 16.3161 16.0328 18.0572C15.9754 18.7957 16.1055 19.5189 16.4116 20.1771C16.5991 20.5903 16.8593 20.9768 17.1845 21.3289C17.2802 21.4322 17.3835 21.5316 17.483 21.6235C17.4945 21.635 17.5098 21.6503 17.5251 21.6618C17.5825 21.7115 17.6476 21.7651 17.7088 21.8148C17.7356 21.8378 17.7623 21.8607 17.7968 21.8837C17.8733 21.9411 17.946 21.9985 18.0264 22.0483C18.7802 22.5495 19.6641 22.825 20.5672 22.825C21.6501 22.825 22.5953 22.408 23.3644 21.612C24.1335 20.8161 24.7267 19.6375 25.0978 18.1184C25.8287 15.1567 25.1667 10.7906 25.1399 10.6069ZM24.7152 18.0266C24.3096 19.6758 23.2228 22.4347 20.5672 22.4347C19.8057 22.4347 19.0595 22.2166 18.409 21.8225C18.3172 21.7727 18.2292 21.7115 18.1412 21.6541C18.1374 21.6503 18.1373 21.6465 18.1335 21.6465C18.0226 21.5661 17.9154 21.4857 17.8197 21.3939C17.6973 21.2906 17.5825 21.1796 17.4715 21.061C16.7062 20.2345 16.3351 19.1745 16.4231 18.0878C16.5532 16.4921 17.4524 15.1758 18.6271 14.1273C18.7305 14.0355 18.8338 13.9475 18.9371 13.8595C20.9498 12.2064 23.5749 11.2651 24.5812 10.9475C24.6272 10.9321 24.6693 10.9206 24.7075 10.9092C24.7343 10.9015 24.7573 10.8939 24.7841 10.8862C24.7841 10.9015 24.7879 10.913 24.7879 10.9283C24.807 11.0584 24.8261 11.2306 24.8491 11.441C24.9371 12.1949 25.0443 13.4117 25.0443 14.7089C25.0404 15.8454 24.9639 17.0278 24.7152 18.0266Z" fill="white"/>
<path d="M24.9814 10.9862C24.9776 10.9977 24.9354 11.1622 24.8474 11.4492C24.3423 13.0908 22.387 18.7005 18.4074 21.8268C18.3806 21.8498 18.3538 21.8689 18.3232 21.8957L18.1395 21.6585L18.1357 21.647L18.0859 21.5857C18.4342 21.3179 18.7594 21.0347 19.077 20.7248C22.762 17.2082 24.3959 11.6214 24.5834 10.9556C24.5949 10.9173 24.6025 10.8944 24.6025 10.8867L24.7097 10.9135L24.7901 10.9326L24.9814 10.9862Z" fill="white"/>
<path d="M18.083 21.5819L18.1328 21.6431C18.3777 21.4594 18.6073 21.249 18.8177 21.0194C18.9096 20.9199 18.9938 20.8204 19.0703 20.7209C18.7565 21.0308 18.4312 21.314 18.083 21.5819ZM17.6353 21.5283C17.5856 21.5589 17.532 21.5972 17.4823 21.6316C17.4784 21.6316 17.4708 21.6354 17.467 21.6393C16.6787 22.1252 15.7756 22.3893 14.8534 22.3893C11.685 22.3893 10.3993 19.1099 9.921 17.1507C9.26284 14.4951 9.59192 10.7528 9.77942 9.18389C9.79856 9.02317 9.81769 8.88539 9.82917 8.77442C9.83682 8.73616 9.84067 8.69788 9.84449 8.66727C9.89424 8.68257 9.95545 8.69789 10.0205 8.72085C10.032 8.72467 10.0435 8.72851 10.0549 8.73234C11.4669 9.17239 16.032 10.7872 18.3777 13.7987C18.4657 13.9058 18.546 14.0168 18.6264 14.1316C18.7297 14.0397 18.833 13.9518 18.9363 13.8637C18.856 13.749 18.7756 13.638 18.6876 13.5308C15.8675 9.89562 10.0435 8.30378 9.72968 8.22342L9.51922 8.16602L9.4848 8.38411C9.46566 8.52569 9.12891 10.7259 9.12891 13.2094C9.12891 14.5678 9.22842 16.0104 9.53454 17.2426C10.4185 20.8166 12.3049 22.7796 14.8496 22.7796C15.7909 22.7796 16.7131 22.5232 17.5282 22.0525C17.62 22.0028 17.708 21.9454 17.796 21.888C17.8573 21.8497 17.9185 21.8038 17.9759 21.7655C18.0295 21.7273 18.083 21.6852 18.1289 21.6469C18.018 21.5666 17.9108 21.4862 17.8152 21.3944C17.7578 21.4403 17.6966 21.4824 17.6353 21.5283Z" fill="white"/>
<path d="M17.5162 21.6772C11.9371 17.3724 9.69093 8.89657 9.66797 8.81238L10.0506 8.71289C10.0736 8.79707 12.2853 17.1428 17.7573 21.3635L17.5162 21.6772Z" fill="white"/>
<path d="M17.3707 24.8379L16.9766 24.8073C16.9766 24.792 17.0799 23.4718 17.0799 23.0203C17.0799 22.496 17.7725 21.7346 17.8529 21.6504L18.1398 21.9182C17.8835 22.1937 17.474 22.7371 17.474 23.0164C17.474 23.4871 17.3745 24.7843 17.3707 24.8379Z" fill="white"/>
<path d="M17.3381 34.6762C7.77937 34.6762 0 26.8968 0 17.3381C0 7.77934 7.77937 0 17.3381 0C26.8968 0 34.6762 7.77934 34.6762 17.3381C34.6762 26.9006 26.8968 34.6762 17.3381 34.6762ZM17.3381 0.394099C7.99365 0.394099 0.394145 7.99363 0.394145 17.3381C0.394145 26.6825 7.99365 34.282 17.3381 34.282C26.6825 34.282 34.282 26.6825 34.282 17.3381C34.282 7.99363 26.6787 0.394099 17.3381 0.394099Z" fill="white"/>
<path d="M32.5259 24.8008H1.89062V25.1949H32.5259V24.8008Z" fill="white"/>
<path d="M30.8867 28.3316H29.911V27.9375H30.8867V28.3316ZM29.1189 28.3316H27.5423V27.9375H29.1189V28.3316ZM26.7541 28.3316H25.1775V27.9375H26.7541V28.3316ZM24.3893 28.3316H22.8127V27.9375H24.3893V28.3316ZM22.0206 28.3316H20.4441V27.9375H22.0206V28.3316ZM19.6558 28.3316H18.0793V27.9375H19.6558V28.3316ZM17.291 28.3316H15.7145V27.9375H17.291V28.3316ZM14.9224 28.3316H13.3459V27.9375H14.9224V28.3316ZM12.5576 28.3316H10.981V27.9375H12.5576V28.3316ZM10.1928 28.3316H8.61625V27.9375H10.1928V28.3316ZM7.82415 28.3316H6.24761V27.9375H7.82415V28.3316ZM5.45935 28.3316H3.88281V27.9375H5.45935V28.3316Z" fill="white"/>
<path d="M26.9757 31.6753H26.3596V31.2812H26.9757V31.6753ZM25.5713 31.6753H23.9948V31.2812H25.5713V31.6753ZM23.2065 31.6753H21.63V31.2812H23.2065V31.6753ZM20.8379 31.6753H19.2614V31.2812H20.8379V31.6753ZM18.4731 31.6753H16.8966V31.2812H18.4731V31.6753ZM16.1083 31.6753H14.5318V31.2812H16.1083V31.6753ZM13.7397 31.6753H12.1631V31.2812H13.7397V31.6753ZM11.3749 31.6753H9.7983V31.2812H11.3749V31.6753ZM9.00622 31.6753H7.42969V31.2812H9.00622V31.6753Z" fill="white"/>
</svg>
