<svg width="36" height="36" viewBox="0 0 36 36" fill="none" xmlns="http://www.w3.org/2000/svg">
<path d="M17.7353 35.1687C16.6716 35.1687 15.5619 35.0271 14.433 34.6904C14.0504 34.6483 10.6294 34.1967 8.26463 30.9939C6.02993 27.971 5.50571 23.5513 6.70342 17.865L6.85649 17.138L7.23148 17.777C8.03123 19.1393 10.4764 22.6291 12.2672 22.6291C12.2902 22.6291 12.3131 22.6291 12.3361 22.6291C12.9292 22.5985 13.4343 22.1469 13.8284 21.286C14.0963 20.7043 12.9943 18.4543 12.1256 17.0423L11.7392 16.4148L12.4471 16.6176C12.5045 16.6329 13.8896 17.0462 15.5274 19.0474C15.7073 19.2694 16.2085 19.4913 16.5797 19.3344C17.0542 19.1393 17.2532 18.3854 17.1461 17.2107C16.9127 16.874 15.8527 15.2898 14.9534 13.0512C14.4024 11.6813 14.0733 10.1086 16.5529 7.28847L17.3221 6.41602L17.0504 7.54867C17.0121 7.70173 16.1818 11.3255 19.8132 12.7643C23.6091 14.2681 23.4139 17.0423 23.2877 18.8829C23.2762 19.0398 23.2685 19.189 23.2609 19.3306C23.2418 19.7133 23.3145 20.3752 23.6015 20.5207C23.8081 20.624 24.1945 20.4594 24.669 20.073C24.6882 20.0577 25.3234 19.5334 25.6218 17.0308L25.2698 13.7362L25.8974 14.5742C25.9624 14.6584 32.2379 23.2337 26.9726 31.8702L26.9076 31.9429C26.8579 31.9773 22.8132 35.1687 17.7353 35.1687ZM7.1205 18.6878C6.14473 23.8689 6.6843 27.8906 8.72385 30.6495C11.0274 33.7682 14.479 34.1164 14.5134 34.1164L14.5708 34.1279C20.5325 35.9416 26.0007 31.9046 26.5096 31.5143C30.4931 24.925 27.5084 18.374 26.0811 15.9173L26.1996 17.0194L26.1958 17.05C25.8629 19.874 25.0938 20.4633 25.0096 20.5207C24.3361 21.0755 23.7813 21.2401 23.3412 21.0181C22.6486 20.6699 22.6754 19.5143 22.6869 19.2885C22.6946 19.1431 22.706 18.99 22.7175 18.8331C22.84 17.0615 23.0083 14.6354 19.6065 13.2885C16.7404 12.1558 16.3539 9.75276 16.3884 8.39433C14.7774 10.5066 15.0376 11.7043 15.493 12.8331C16.4611 15.24 17.6512 16.9161 17.6626 16.9352L17.7086 16.9964L17.7162 17.0729C17.9076 18.9862 17.3259 19.6444 16.8055 19.8587C16.1512 20.1304 15.3859 19.7707 15.0874 19.4033C14.3183 18.462 13.6142 17.8995 13.1091 17.5742C13.7634 18.7528 14.7239 20.7158 14.3527 21.5194C13.8591 22.5908 13.1894 23.1533 12.3667 23.1954C10.331 23.2949 8.02739 20.0806 7.1205 18.6878Z" fill="white"/>
<path d="M18.0196 35.0784C17.5107 35.0784 16.9941 34.9866 16.4928 34.8029C15.452 34.4203 14.1089 33.6167 13.6152 31.9521C12.8958 29.5185 14.2275 26.0286 17.5719 21.5784L18.1267 20.8398L18.0885 21.762C18.0847 21.8271 17.8589 28.2404 20.7365 29.0631C21.1842 29.1894 21.6012 30.211 21.7084 31.0797C21.8155 31.956 21.7428 33.5708 20.0515 34.5427C19.4354 34.8986 18.7351 35.0784 18.0196 35.0784ZM17.5145 22.6268C14.6676 26.5835 13.5426 29.66 14.1701 31.7876C14.5949 33.2225 15.7772 33.9266 16.6956 34.2634C17.7364 34.646 18.8576 34.5695 19.7683 34.0452C20.8933 33.3986 21.1497 32.4075 21.1689 31.6881C21.1957 30.6128 20.7211 29.7098 20.5566 29.6065C17.9507 28.8641 17.5604 24.5325 17.5145 22.6268Z" fill="white"/>
<path d="M17.5868 35.1736C7.89032 35.1736 0 27.2833 0 17.5868C0 7.89033 7.89032 0 17.5868 0C27.2833 0 35.1736 7.89033 35.1736 17.5868C35.1736 27.2833 27.2833 35.1736 17.5868 35.1736ZM17.5868 0.5778C8.2041 0.5778 0.573982 8.20793 0.573982 17.5906C0.573982 26.9733 8.2041 34.6034 17.5868 34.6034C26.9657 34.6034 34.5996 26.9733 34.5996 17.5906C34.5996 8.20793 26.9657 0.5778 17.5868 0.5778Z" fill="white"/>
</svg>
