<svg width="35" height="35" viewBox="0 0 35 35" fill="none" xmlns="http://www.w3.org/2000/svg">
<path d="M5.25944 27.0203C4.563 27.0203 3.83977 26.9858 3.08594 26.9208L3.12419 26.4846C7.50941 26.871 10.8653 26.1134 13.0924 24.2269C15.4189 22.2563 15.6409 19.7116 15.6409 19.6886C15.8322 17.1822 15.3615 15.3302 14.2327 14.1784C12.3424 12.2498 8.57703 12.3646 6.81682 13.8149C4.97625 15.3302 5.12547 17.561 5.1293 17.584C5.16374 20.144 6.98137 21.533 8.25943 21.7052C9.96225 21.9348 11.9214 21.3493 12.3079 19.0228C12.5758 17.408 11.7875 16.8302 11.1714 16.5355C10.7122 16.3174 10.1842 16.2256 9.64847 16.2792C8.29005 16.4093 7.7773 17.2626 7.74669 18.0164C7.7199 18.6975 8.06428 19.2753 8.55026 19.3595L8.4737 19.7919C7.77344 19.6695 7.27219 18.9004 7.30663 18.0011C7.34107 17.1057 7.96479 16.0037 9.60256 15.843C10.2148 15.7856 10.8232 15.8889 11.3551 16.1414C12.5069 16.6886 12.9699 17.6835 12.7326 19.0955C12.2926 21.7358 10.012 22.3863 8.19437 22.1376C6.49538 21.908 4.71606 20.1478 4.68162 17.5993C4.67397 17.5113 4.51707 15.1274 6.52983 13.4705C8.43927 11.8978 12.438 11.7218 14.5388 13.8684C15.7595 15.1121 16.2722 17.0789 16.0694 19.7192C16.0618 19.8302 15.8398 22.4591 13.3755 24.5522C11.4546 26.1899 8.72629 27.0203 5.25944 27.0203Z" fill="white"/>
<path d="M15.7344 20.4906V20.0505C25.4156 20.0085 26.0316 13.224 26.0355 13.1551C26.3569 10.8707 26.2268 9.32472 24.6273 7.64104C22.7714 5.6895 18.9985 5.81197 17.2115 7.27754C15.3786 8.7852 15.5201 11.0275 15.524 11.0467C15.5584 13.7597 17.3454 14.6321 18.4054 14.9115C19.3543 15.1602 20.464 14.9842 21.302 14.4523C21.811 14.1309 22.4577 13.5263 22.649 12.4855C22.9474 10.863 22.1783 10.2929 21.5699 10.002C21.1069 9.78392 20.5827 9.69207 20.047 9.74564C18.7 9.87574 18.1911 10.6793 18.1643 11.3911C18.1375 12.0416 18.4895 12.5964 18.9793 12.6844L18.9028 13.1168C18.1987 12.9944 17.6898 12.2444 17.7242 11.3758C17.7587 10.4803 18.3747 9.47012 20.0048 9.30941C20.6171 9.25201 21.2255 9.35534 21.7574 9.60789C22.8977 10.1513 23.3416 11.1462 23.0775 12.5658C22.9015 13.5148 22.3696 14.2954 21.5354 14.8235C20.5979 15.4204 19.3543 15.6156 18.2944 15.3362C17.3416 15.0875 15.126 14.1692 15.0877 11.0697C15.0801 10.9816 14.9232 8.59769 16.936 6.9408C18.876 5.34513 22.8824 5.16912 24.9487 7.33878C26.8429 9.32858 26.751 11.2457 26.4755 13.201C26.4679 13.2622 25.8136 20.4447 15.7344 20.4906Z" fill="white"/>
<path d="M6.62055 30.0197C6.50192 30.0197 6.40245 29.9241 6.40245 29.8055C6.39863 29.683 6.49427 29.5835 6.61672 29.5797L7.49301 29.5606C7.61163 29.5644 7.71494 29.6563 7.71876 29.7749C7.72259 29.8973 7.62695 29.9968 7.5045 30.0006L6.62821 30.0197C6.62055 30.0197 6.62055 30.0197 6.62055 30.0197ZM8.37313 29.9815C8.25451 29.9815 8.155 29.8858 8.155 29.7672C8.15117 29.6448 8.24686 29.5452 8.3693 29.5414L9.24555 29.5223C9.368 29.5338 9.46753 29.6179 9.47135 29.7366C9.47518 29.859 9.37949 29.9585 9.25704 29.9624L8.38075 29.9815C8.37692 29.9815 8.37696 29.9815 8.37313 29.9815ZM10.1295 29.9432C10.0109 29.9432 9.91137 29.8476 9.91137 29.729C9.90754 29.6065 10.0032 29.507 10.1257 29.5032L11.002 29.4841C11.1436 29.4802 11.2239 29.5759 11.2277 29.6983C11.2315 29.8208 11.1359 29.9202 11.0134 29.9241L10.1372 29.9432C10.1333 29.9432 10.1295 29.9432 10.1295 29.9432ZM11.8859 29.905C11.7673 29.905 11.6678 29.8093 11.6678 29.6907C11.664 29.5682 11.7596 29.4687 11.882 29.4649L12.7583 29.4457C12.8846 29.4457 12.9803 29.5414 12.9841 29.6601C12.9879 29.7825 12.8923 29.882 12.7698 29.8858L11.8935 29.905C11.8897 29.905 11.8859 29.905 11.8859 29.905ZM13.6385 29.8667C13.5198 29.8667 13.4203 29.771 13.4203 29.6524C13.4165 29.5299 13.5122 29.4305 13.6346 29.4266L14.5109 29.4075H14.5147C14.6333 29.4075 14.7329 29.5032 14.7329 29.6218C14.7367 29.7443 14.641 29.8437 14.5185 29.8476L13.6422 29.8667C13.6422 29.8667 13.6423 29.8667 13.6385 29.8667ZM15.3948 29.8284C15.2762 29.8284 15.1767 29.7328 15.1767 29.6141C15.1729 29.4917 15.2686 29.3922 15.391 29.3884L16.2673 29.3692H16.2711C16.3897 29.3692 16.4892 29.4649 16.4892 29.5835C16.493 29.706 16.3974 29.8055 16.2749 29.8093L15.3987 29.8284C15.3987 29.8284 15.3987 29.8284 15.3948 29.8284ZM17.1512 29.7901C17.0326 29.7901 16.9331 29.6945 16.9331 29.5759C16.9293 29.4534 17.0249 29.3539 17.1474 29.3501L18.0237 29.331C18.1423 29.3425 18.2456 29.4228 18.2494 29.5452C18.2533 29.6677 18.1576 29.7672 18.0352 29.771L17.1589 29.7901C17.155 29.7901 17.1512 29.7901 17.1512 29.7901ZM18.9076 29.7519C18.789 29.7519 18.6895 29.6562 18.6895 29.5338C18.6895 29.4114 18.7851 29.3118 18.9076 29.3118C19.206 29.308 19.4969 29.3004 19.7762 29.2889C19.8872 29.2698 19.9981 29.3769 20.0058 29.4955C20.0134 29.6179 19.9178 29.7213 19.7954 29.7251C19.5084 29.7404 19.2137 29.7481 18.9076 29.7519ZM20.6563 29.6639C20.5454 29.6639 20.4497 29.5797 20.4382 29.4649C20.4267 29.3425 20.5147 29.2353 20.6372 29.2238C20.9318 29.197 21.2188 29.1626 21.4943 29.1205C21.613 29.1014 21.7278 29.1855 21.7431 29.3042C21.7622 29.4228 21.678 29.5338 21.5594 29.5529C21.2762 29.595 20.9816 29.6294 20.6793 29.6601C20.6716 29.6639 20.664 29.6639 20.6563 29.6639ZM22.3898 29.4075C22.2865 29.4075 22.1984 29.3348 22.1755 29.2315C22.1525 29.1129 22.2291 28.998 22.3439 28.9713C22.6308 28.91 22.914 28.845 23.1818 28.7685C23.2966 28.7379 23.4191 28.8029 23.4535 28.9215C23.488 29.0363 23.4191 29.1588 23.3005 29.1932C23.025 29.2698 22.7303 29.3424 22.4357 29.4037C22.4204 29.4037 22.4051 29.4075 22.3898 29.4075ZM24.0772 28.933C23.9892 28.933 23.9051 28.8794 23.8706 28.7876C23.8286 28.6728 23.8898 28.5465 24.0007 28.5083C24.2724 28.4088 24.5403 28.3016 24.7928 28.183C24.9038 28.1333 25.0339 28.1792 25.0836 28.2902C25.1334 28.4011 25.0874 28.5312 24.9765 28.581C24.7124 28.7034 24.4331 28.8182 24.15 28.9215C24.127 28.9292 24.104 28.933 24.0772 28.933ZM25.6653 28.1983C25.5887 28.1983 25.516 28.1601 25.4739 28.0874C25.4127 27.984 25.4471 27.8463 25.5543 27.7889C25.803 27.6435 26.0441 27.4904 26.2698 27.322C26.3693 27.2493 26.5071 27.2723 26.576 27.3718C26.6487 27.4713 26.6257 27.6052 26.5301 27.6779C26.289 27.8539 26.0365 28.0185 25.7763 28.1677C25.7418 28.1868 25.7035 28.1983 25.6653 28.1983ZM27.0773 27.1651C27.0199 27.1651 26.9587 27.1422 26.9166 27.0963C26.8362 27.0083 26.84 26.8667 26.9281 26.7863C27.1385 26.595 27.3336 26.3884 27.5173 26.1741C27.5938 26.0822 27.7354 26.0707 27.8273 26.1511C27.9191 26.2315 27.9306 26.3692 27.8502 26.4611C27.6551 26.6868 27.4446 26.9088 27.2227 27.1116C27.1844 27.1422 27.1309 27.1651 27.0773 27.1651ZM28.2138 25.8297C28.1717 25.8297 28.1296 25.8182 28.0951 25.7953C27.9956 25.7302 27.965 25.5924 28.0301 25.4929C28.187 25.2557 28.3286 25.007 28.451 24.7544C28.5046 24.6473 28.6347 24.6014 28.7457 24.655C28.8528 24.7085 28.8987 24.8386 28.8452 24.9496C28.7151 25.2174 28.562 25.4815 28.3974 25.7378C28.3553 25.7952 28.2826 25.8297 28.2138 25.8297ZM22.0683 25.1294C21.9459 25.1294 21.8502 25.0299 21.8502 24.9113C21.8502 24.7889 21.9459 24.6932 22.0683 24.6932C22.3553 24.6932 22.6347 24.6664 22.9025 24.6167C23.025 24.5975 23.1359 24.6741 23.1589 24.7927C23.1818 24.9113 23.1015 25.0261 22.9829 25.0491C22.6882 25.0988 22.3821 25.1294 22.0683 25.1294ZM21.1959 25.0605C21.1844 25.0605 21.1691 25.0605 21.1576 25.0567C20.8515 25.0031 20.553 24.9036 20.2699 24.7659C20.1589 24.7123 20.1168 24.5822 20.1665 24.4712C20.2201 24.3641 20.3502 24.3144 20.4612 24.368C20.7099 24.4866 20.9701 24.5707 21.238 24.6205C21.3566 24.6396 21.4369 24.7544 21.414 24.8769C21.391 24.984 21.2992 25.0605 21.1959 25.0605ZM23.7826 24.8042C23.6946 24.8042 23.6143 24.7544 23.5798 24.6702C23.5339 24.5593 23.5875 24.4292 23.6984 24.3832C23.9586 24.2761 24.1997 24.1384 24.4102 23.9776C24.5058 23.9049 24.6436 23.9241 24.7163 24.0197C24.789 24.1154 24.7699 24.2532 24.6742 24.3259C24.4331 24.5096 24.1615 24.6664 23.863 24.7889C23.84 24.8004 23.8132 24.8042 23.7826 24.8042ZM19.6308 24.3067C19.5811 24.3067 19.5275 24.2876 19.4854 24.2531C19.252 24.0503 19.0453 23.8208 18.8655 23.5606C18.7966 23.4611 18.8196 23.3233 18.9191 23.2544C19.0186 23.1855 19.1563 23.2085 19.2252 23.308C19.3821 23.5338 19.5696 23.7404 19.7724 23.9202C19.8642 24.0006 19.8757 24.1384 19.7954 24.2302C19.7533 24.2838 19.692 24.3067 19.6308 24.3067ZM28.9791 24.2531C28.9561 24.2531 28.9331 24.2493 28.9102 24.2417C28.7954 24.2034 28.7342 24.0771 28.7724 23.9623C28.891 23.6103 28.9485 23.3233 28.9791 23.1434C28.9982 23.0248 29.113 22.9406 29.2316 22.9636C29.3503 22.9827 29.4306 23.0975 29.4115 23.2162C29.377 23.4113 29.312 23.7251 29.1857 24.1001C29.1551 24.1957 29.0709 24.2531 28.9791 24.2531ZM25.1525 23.7442C25.1066 23.7442 25.0645 23.7328 25.0262 23.7021C24.9267 23.6333 24.9038 23.4955 24.9765 23.396C25.1295 23.1779 25.2558 22.9368 25.3439 22.6728C25.3821 22.558 25.5084 22.4968 25.6232 22.535C25.738 22.5733 25.7992 22.6996 25.7609 22.8144C25.6576 23.1167 25.5122 23.3998 25.3362 23.6486C25.2903 23.7136 25.2214 23.7442 25.1525 23.7442ZM21.9765 23.0172C21.965 23.0172 21.9497 23.0172 21.9382 23.0134C21.6053 22.956 21.3107 22.757 21.0887 22.4432C21.0199 22.3437 21.0428 22.2059 21.1423 22.1371C21.2418 22.0682 21.3795 22.0911 21.4484 22.1906C21.5556 22.3437 21.7392 22.535 22.0109 22.5809C22.1295 22.6001 22.2099 22.7149 22.187 22.8335C22.1716 22.9445 22.0798 23.0172 21.9765 23.0172ZM18.6321 22.8871C18.5441 22.8871 18.4637 22.8335 18.4293 22.7493C18.3183 22.4738 18.2303 22.1792 18.1691 21.8692C18.1461 21.7506 18.2226 21.6358 18.3413 21.6128C18.4599 21.586 18.5747 21.6664 18.5977 21.785C18.6512 22.0644 18.7316 22.3361 18.8349 22.5848C18.8808 22.6957 18.8272 22.8259 18.7124 22.8718C18.6895 22.8794 18.6589 22.8871 18.6321 22.8871ZM29.2661 22.5235C29.2622 22.5235 29.2622 22.5235 29.2584 22.5235C29.136 22.5197 29.0441 22.4164 29.0479 22.2978C29.0518 22.1371 29.0556 21.984 29.0556 21.831C29.0556 21.697 29.0518 21.5669 29.0479 21.4368C29.0441 21.3144 29.1398 21.2149 29.2584 21.2111C29.3847 21.2149 29.4803 21.3029 29.4842 21.4215C29.488 21.5554 29.4918 21.6932 29.4918 21.831C29.4918 21.9879 29.488 22.1486 29.4842 22.3131C29.4803 22.4317 29.3847 22.5235 29.2661 22.5235ZM25.7342 22.1103C25.7265 22.1103 25.7188 22.1103 25.7074 22.1103C25.5887 22.095 25.5007 21.9878 25.516 21.8654C25.5352 21.7085 25.5428 21.5593 25.5428 21.4215C25.5428 21.2876 25.5352 21.1613 25.5199 21.0465C25.5046 20.9279 25.5849 20.8169 25.7074 20.7978C25.826 20.7825 25.937 20.8628 25.9561 20.9853C25.9752 21.123 25.9867 21.2684 25.9867 21.4215C25.9867 21.5746 25.9752 21.7391 25.9561 21.9151C25.9408 22.0261 25.8451 22.1103 25.7342 22.1103ZM20.9663 21.72C20.8553 21.72 20.7635 21.6396 20.7482 21.5286C20.7367 21.4368 20.729 21.3412 20.729 21.2455C20.729 21.0121 20.7635 20.7825 20.8362 20.5644C20.8744 20.4496 20.9969 20.3845 21.1117 20.4228C21.2265 20.461 21.2915 20.5835 21.2533 20.6983C21.1959 20.8705 21.1691 21.058 21.1691 21.2455C21.1691 21.322 21.1729 21.3985 21.1844 21.4712C21.1997 21.5899 21.1155 21.7008 20.9931 21.7161C20.9854 21.72 20.9739 21.72 20.9663 21.72ZM18.2839 21.1728C18.1652 21.1728 18.0696 21.081 18.0658 20.9623L18.0619 20.8054C18.0619 20.8054 18.0581 20.7442 18.0581 20.6409C18.0581 20.5146 18.0657 20.308 18.0964 20.0516C18.1117 19.933 18.2188 19.8411 18.3413 19.8603C18.4599 19.8756 18.5479 19.9827 18.5326 20.1052C18.5058 20.3386 18.4982 20.5261 18.4982 20.6409C18.4982 20.7289 18.502 20.7825 18.502 20.7863L18.5058 20.947C18.5096 21.0695 18.4178 21.1689 18.2953 21.1766C18.2915 21.1728 18.2877 21.1728 18.2839 21.1728ZM29.201 20.771C29.09 20.771 28.9982 20.6906 28.9829 20.5797C28.9485 20.2889 28.8987 20.0057 28.8337 19.7416C28.8069 19.623 28.8796 19.5044 28.9982 19.4776C29.1168 19.447 29.2354 19.5235 29.2622 19.6421C29.3273 19.9215 29.3809 20.22 29.4191 20.5299C29.4344 20.6485 29.3503 20.7595 29.2278 20.7748C29.2202 20.771 29.2086 20.771 29.201 20.771ZM25.4395 20.4151C25.3706 20.4151 25.2979 20.3807 25.2559 20.3194C25.1181 20.1166 24.9306 19.9483 24.6819 19.8105C24.5747 19.7531 24.5364 19.6192 24.5977 19.5121C24.655 19.4049 24.789 19.3667 24.8961 19.4279C25.2061 19.6001 25.4433 19.8143 25.6194 20.0745C25.6882 20.174 25.6614 20.3118 25.5581 20.3807C25.5237 20.4036 25.4816 20.4151 25.4395 20.4151ZM21.502 20.1128C21.4446 20.1128 21.3872 20.0899 21.3451 20.0478C21.2609 19.9598 21.2609 19.822 21.3489 19.7378C21.5709 19.5197 21.8464 19.3475 22.164 19.2251C22.2788 19.183 22.405 19.2404 22.4471 19.3552C22.4892 19.4699 22.4318 19.5963 22.317 19.6384C22.0568 19.734 21.8349 19.8756 21.6551 20.0516C21.613 20.0937 21.5594 20.1128 21.502 20.1128ZM23.9701 19.535C23.9548 19.535 23.9395 19.535 23.9242 19.5312C23.7214 19.4891 23.5263 19.4738 23.3005 19.47C23.2354 19.47 23.1742 19.4738 23.1092 19.4776C22.9905 19.4853 22.8834 19.3934 22.8757 19.2748C22.8681 19.1524 22.9599 19.049 23.0785 19.0414C23.1589 19.0376 23.2354 19.0337 23.3158 19.0337C23.5492 19.0337 23.7865 19.0567 24.0122 19.1065C24.1308 19.1332 24.2074 19.248 24.1806 19.3666C24.1614 19.4623 24.0696 19.535 23.9701 19.535ZM18.4905 19.4394C18.4714 19.4394 18.4484 19.4355 18.4293 19.4317C18.3145 19.3973 18.2456 19.2748 18.28 19.16C18.368 18.8616 18.479 18.5784 18.613 18.3067C18.6665 18.1995 18.8004 18.1536 18.9076 18.2072C19.0147 18.2608 19.0606 18.3947 19.0071 18.5018C18.8846 18.7467 18.7813 19.0108 18.701 19.2825C18.6742 19.3743 18.5862 19.4394 18.4905 19.4394ZM28.7916 19.0682C28.7036 19.0682 28.6194 19.0146 28.5888 18.9266C28.4854 18.6587 28.3592 18.4024 28.2214 18.1728C28.1602 18.0694 28.1908 17.9355 28.2979 17.8704C28.4013 17.8092 28.5352 17.8437 28.6002 17.947C28.7533 18.1996 28.8872 18.4751 29.002 18.7697C29.0441 18.8845 28.9905 19.0108 28.8757 19.0529C28.8451 19.0644 28.8184 19.0682 28.7916 19.0682ZM19.2711 17.8743C19.2252 17.8743 19.1793 17.859 19.141 17.8284C19.0453 17.7557 19.0262 17.6179 19.0989 17.5223C19.2826 17.2812 19.4892 17.0516 19.7188 16.845C19.8068 16.7646 19.9484 16.7684 20.0288 16.8603C20.1091 16.9483 20.1053 17.0899 20.0135 17.1702C19.8068 17.3577 19.6155 17.5682 19.451 17.7863C19.405 17.8437 19.34 17.8743 19.2711 17.8743ZM27.8847 17.5758C27.8235 17.5758 27.766 17.5529 27.7201 17.5031C27.6819 17.461 27.6436 17.4189 27.6015 17.3769C27.4523 17.2238 27.2839 17.0784 27.1002 16.9445C27.0046 16.8718 26.9816 16.734 27.0543 16.6383C27.127 16.5388 27.2648 16.5197 27.3605 16.5924C27.5594 16.7416 27.7469 16.9023 27.9153 17.0707C27.9574 17.1166 28.0033 17.1625 28.0454 17.2085C28.1257 17.3003 28.1181 17.4381 28.0301 17.5184C27.9918 17.5605 27.9383 17.5758 27.8847 17.5758ZM20.5645 16.7072C20.488 16.7072 20.4153 16.6689 20.377 16.6001C20.3158 16.4967 20.3502 16.3628 20.4535 16.2977C20.7061 16.1485 20.9816 16.0146 21.2801 15.9036C21.3949 15.8616 21.5211 15.9189 21.5632 16.0299C21.6053 16.1447 21.5479 16.271 21.4369 16.3131C21.1652 16.4164 20.9089 16.5388 20.6793 16.6766C20.641 16.6957 20.6028 16.7072 20.5645 16.7072ZM26.4842 16.5388C26.4535 16.5388 26.4191 16.5312 26.3885 16.5159C26.1436 16.3973 25.8795 16.2901 25.604 16.2059C25.4892 16.1715 25.4242 16.0452 25.4586 15.9304C25.4931 15.8156 25.6155 15.7506 25.7342 15.785C26.0288 15.8768 26.3158 15.9878 26.5798 16.1179C26.687 16.1715 26.7329 16.3016 26.6793 16.4126C26.6449 16.4929 26.5645 16.5388 26.4842 16.5388ZM22.1984 16.0797C22.099 16.0797 22.0071 16.0108 21.9841 15.9075C21.9574 15.7889 22.0339 15.674 22.1525 15.6473C22.4433 15.5822 22.7418 15.5401 23.0479 15.5133C23.1666 15.5057 23.2737 15.5937 23.2852 15.7123C23.2967 15.8348 23.2048 15.9381 23.0862 15.9496C22.7992 15.9725 22.5161 16.0184 22.2482 16.0758C22.2291 16.0758 22.2138 16.0797 22.1984 16.0797ZM24.8158 16.0146C24.8043 16.0146 24.7928 16.0146 24.7814 16.0108C24.5059 15.9648 24.2188 15.9381 23.9357 15.9266C23.8132 15.9228 23.7214 15.8195 23.7252 15.7008C23.7291 15.5784 23.8324 15.4865 23.951 15.4903C24.2533 15.5018 24.5556 15.5324 24.8502 15.5822C24.9688 15.6013 25.0492 15.7161 25.0301 15.8347C25.0147 15.9381 24.9191 16.0146 24.8158 16.0146Z" fill="white"/>
<path d="M5.54348 19.6387H0.503906V20.0787H5.54348V19.6387Z" fill="white"/>
<path d="M17.3381 34.6762C7.77934 34.6762 0 26.8968 0 17.3381C0 7.77939 7.77934 0 17.3381 0C26.8968 0 34.6762 7.77939 34.6762 17.3381C34.6762 26.8968 26.8968 34.6762 17.3381 34.6762ZM17.3381 0.436232C8.02041 0.436232 0.440015 8.01663 0.440015 17.3343C0.440015 26.6519 8.02041 34.2323 17.3381 34.2323C26.6557 34.2323 34.2361 26.6519 34.2361 17.3343C34.2361 8.02046 26.6557 0.436232 17.3381 0.436232Z" fill="white"/>
</svg>
