<svg width="35" height="35" viewBox="0 0 35 35" fill="none" xmlns="http://www.w3.org/2000/svg">
<path d="M4.78983 29.2925C2.21457 22.9902 2.40589 18.2873 3.58829 14.897C5.98371 8.02454 14.1343 4.37785 20.7159 7.48883C20.7657 7.51179 20.8154 7.53857 20.8652 7.56153C23.6394 8.93144 25.568 11.5144 26.5973 15.2414C26.6317 15.4825 27.2746 20.4876 24.3856 23.7019C22.7822 25.4889 20.406 26.3499 17.3179 26.2733C13.2886 26.1662 11.4174 23.2925 11.008 20.6368C10.5373 17.5756 11.8421 14.698 14.0386 13.9442C15.3625 13.4888 18.0947 13.2784 19.7937 14.6368C20.9493 15.5628 21.4276 17.0284 21.2095 18.9914C21.2057 19.0259 20.7771 21.5973 17.9149 21.8805C15.4314 22.1215 14.6317 20.4761 14.3753 19.4697C14.1648 18.6432 14.2643 17.8243 14.6623 17.1662C15.0105 16.5845 15.7069 15.9149 17.0462 15.9952C17.2414 16.0067 17.4289 16.0335 17.6011 16.0718C18.3855 16.244 18.9672 16.8868 19.0858 17.7133C19.2006 18.5361 18.8371 19.2784 18.133 19.6572C17.6662 19.9098 17.0118 20.0208 16.5871 19.5807C15.6993 18.6662 16.124 17.744 16.4722 17.3804L16.7899 17.6866C16.7172 17.7631 16.1087 18.4557 16.9046 19.2746C17.2375 19.6151 17.8154 19.332 17.9302 19.2708C18.5692 18.9264 18.7261 18.272 18.6534 17.7746C18.5616 17.1317 18.1139 16.6343 17.5131 16.5042C17.36 16.4697 17.1955 16.4506 17.0233 16.4391C16.124 16.3817 15.462 16.7032 15.0411 17.3958C14.7044 17.9544 14.6202 18.6508 14.8039 19.3626C15.0756 20.4264 15.8294 21.6509 17.8766 21.4442C20.3945 21.1955 20.7618 19.0259 20.7771 18.934C20.9761 17.1394 20.5552 15.8039 19.522 14.9812C17.8996 13.684 15.2248 14.0016 14.184 14.3613C12.1865 15.0463 11.0079 17.7172 11.4442 20.5718C11.823 23.0514 13.5679 25.7338 17.3294 25.8333C20.2835 25.9136 22.545 25.0948 24.0565 23.4111C26.8078 20.3422 26.1726 15.383 26.1649 15.3332C25.1738 11.7631 23.3218 9.27199 20.67 7.95949C20.0884 7.6725 19.4914 7.45438 18.8906 7.28984C12.7031 5.61764 5.97603 9.13807 3.94796 15.2146C2.84974 18.5055 2.71582 23.0552 5.19542 29.1241L4.78983 29.2925Z" fill="white"/>
<path d="M20.736 34.3508C8.54075 36.6812 -2.0052 26.1352 0.325168 13.94C1.61854 7.16321 7.16319 1.61854 13.94 0.325167C26.1352 -2.0052 36.6812 8.54077 34.3508 20.736C33.0575 27.5128 27.5128 33.0575 20.736 34.3508ZM20.6518 0.757569C8.76653 -1.5154 -1.51157 8.76655 0.75757 20.6518C2.02033 27.2564 7.42339 32.6595 14.028 33.9223C25.9133 36.1914 36.1914 25.9133 33.9223 14.028C32.6595 7.42343 27.2564 2.02033 20.6518 0.757569Z" fill="white"/>
</svg>
